<svg id="Capa_1" enable-background="new 0 0 497 497" height="512" viewBox="0 0 497 497" width="512" xmlns="http://www.w3.org/2000/svg"><path d="m489.5 120h-22.5l-70 150 70 150h22.5c4.142 0 7.5-3.358 7.5-7.5v-92.5l-20-50 20-50v-92.5c0-4.142-3.358-7.5-7.5-7.5z" fill="#db2116"/><path d="m278.5 120v140l60 160h128.5v-300z" fill="#ff3a2f"/><path d="m467 320h30v-100h-30l-30 45z" fill="#ff9a42"/><path d="m278.5 220h188.5v100h-188.5z" fill="#ffba48"/><path d="m368.5 90c0-16.5-13.5-30-30-30h-30l30 330h30v-100c0-23.258-11.763-42.391-26.851-44.752l26.851-55.248z" fill="#db2116"/><path d="m338.5 160-40 50 40 50c16.569 0 30 13.431 30 30v-100c0-16.5-13.5-30-30-30z" fill="#ff9a42"/><path d="m338.5 90c0-16.5-13.5-30-30-30h-248.5v100l30 50-30 50v100h248.5l30 30v-130l-30-50 30-50z" fill="#ff3a2f"/><path d="m60 160h278.5v100h-278.5z" fill="#ffba48"/><path d="m338.5 360h-30v30c0 16.569 13.431 30 30 30s30-13.431 30-30-13.431-30-30-30z" fill="#a41910"/><path d="m30 397.5h-7.5v-15h7.5c12.407 0 22.5-10.093 22.5-22.5v-300c0-12.407-10.093-22.5-22.5-22.5h-7.5v-15h7.5c20.678 0 37.5 16.822 37.5 37.5v300c0 20.678-16.822 37.5-37.5 37.5z" fill="#b6f1fb"/><path d="m14.275.017c-8.068.38-14.275 7.33-14.275 15.407v474.076c0 4.142 3.358 7.5 7.5 7.5h15c4.142 0 7.5-3.358 7.5-7.5v-474.5c0-8.525-7.111-15.388-15.725-14.983z" fill="#ff7a3c"/></svg>