<svg id="Layer_1" enable-background="new 0 0 512 512" height="512" viewBox="0 0 512 512" width="512" xmlns="http://www.w3.org/2000/svg"><g><path d="m508 369.32h-492.547v-339.96h492.547c2.209 0 4 1.791 4 4v331.96c0 2.209-1.791 4-4 4z" fill="#e82a40"/><path d="m481.095 29.36v339.96h26.905c2.209 0 4-1.791 4-4v-331.96c0-2.209-1.791-4-4-4z" fill="#d6243a"/><path d="m15.453 142.68h496.547v113.32h-496.547z" fill="#3c85c9"/><path d="m481.095 142.68h30.905v113.32h-30.905z" fill="#3479ba"/><path d="m512 142.68h-496.547v-113.32h492.547c2.209 0 4 1.791 4 4z" fill="#efefef"/><path d="m481.095 29.36v113.32h30.905v-109.32c0-2.209-1.791-4-4-4z" fill="#dcdcdc"/><path d="m15.453 512c-8.535 0-15.453-6.918-15.453-15.453v-481.094c0-8.535 6.918-15.453 15.453-15.453 8.534 0 15.453 6.918 15.453 15.453v481.095c-.001 8.534-6.919 15.452-15.453 15.452z" fill="#ca6633"/><g fill="#ae5121"><path d="m0 66.447h30.905v41.207h-30.905z"/><path d="m0 291.026h30.905v41.207h-30.905z"/></g></g></svg>